<?xml version="1.0" encoding="UTF-8"?>
<svg xmlns="http://www.w3.org/2000/svg" version="1.1" viewBox="0 0 88 17.64">
  <defs>
    <style>
      .cls-1 {
        fill: #0082ff;
      }

      .cls-2 {
        fill: #fff;
      }

      .cls-3 {
        fill: #231f20;
      }
    </style>
  </defs>
  <!-- Generator: Adobe Illustrator 28.6.0, SVG Export Plug-In . SVG Version: 1.2.0 Build 709)  -->
  <g>
    <g id="_레이어_1" data-name="레이어_1">
      <g>
        <path class="cls-3" d="M24.51,3.82v3.52h.78v-3.74h1.48v10.42h-1.48v-5.52h-.78v4.3h-2.7c-.42,0-.73-.1-.94-.31-.21-.2-.31-.5-.31-.9V3.82h3.94ZM22.07,4.96v6.71h.94v-6.71h-.94ZM29.03,3.61v10.42h-1.48V3.61h1.48Z"/>
        <path class="cls-3" d="M35.07,3.82v3.23c0,1.55-.38,2.84-1.15,3.89-.71.96-1.77,1.74-3.18,2.33l-.61-.89c1.03-.46,1.83-1.05,2.4-1.77.69-.86,1.03-1.9,1.03-3.11v-2.5h-3.18v-1.18h4.69ZM38.49,3.61v4.23h1.04v1.19h-1.04v5.01h-1.52V3.61h1.52Z"/>
        <path class="cls-3" d="M46.22,7.09c.61.69,1.51,1.24,2.69,1.65l-.68.92c-.96-.34-1.75-.72-2.37-1.15-.65-.45-1.16-.98-1.53-1.58-.35.61-.85,1.13-1.49,1.58-.62.43-1.41.81-2.39,1.15l-.61-.92c1.13-.4,1.99-.96,2.6-1.66.76-.87,1.14-2,1.14-3.38h1.51c0,1.4.37,2.53,1.12,3.39ZM48.82,12.14v1.15h-8.92v-1.15h8.92Z"/>
        <path class="cls-3" d="M54.84,3.82v1.15h-3.29v2.52h2.96v1.14h-2.96v3.03h5.09v-3.08h-1.5v-1.14h1.5v-3.85h1.52v10.42h-1.52v-1.21h-5.22c-.47,0-.81-.1-1.04-.29-.23-.2-.35-.52-.35-.95V3.82h4.82Z"/>
        <path class="cls-3" d="M65.09,4.96h-3.77v6.7h5.08V3.61h1.52v10.42h-1.52v-1.21h-5.28c-.45,0-.79-.12-1.01-.35-.21-.22-.31-.53-.31-.95V3.82h5.29v1.14Z"/>
        <path class="cls-3" d="M71.33,4.23v-.67h1.52v.67h2.1v1.11h-1.56c.65.18,1.11.49,1.38.93.25.4.31.89.19,1.44-.14.48-.44.89-.92,1.2-.54.36-1.19.54-1.98.54s-1.45-.18-1.99-.55c-.47-.32-.76-.72-.9-1.19-.13-.56-.08-1.04.17-1.44.27-.44.73-.75,1.38-.93h-1.55v-1.11h2.16ZM77.54,10.22v3.8h-1.52v-2.63h-6.15v-1.17h7.67ZM71,6.38c-.23.21-.34.47-.34.78s.11.56.34.79c.27.26.62.39,1.06.39s.8-.13,1.07-.39c.24-.23.36-.5.36-.79s-.12-.57-.36-.78c-.27-.24-.62-.36-1.07-.36s-.8.12-1.06.36ZM77.54,3.61v2.46h1.04v1.19h-1.04v2.27h-1.52V3.61h1.52Z"/>
        <path class="cls-3" d="M85.92,8.21V3.61h1.52v8.12h-1.52v-.61h-1.72v-1.17h1.72v-.57h-3.26v1.74h-1.33v1.64h6.19v1.17h-6.36c-.49,0-.84-.09-1.05-.27-.2-.18-.3-.47-.3-.88v-2.03h1.33v-1.38h-2.31v-1.16h7.09ZM84.24,4.23c.49.4.73.9.73,1.52s-.24,1.1-.73,1.51c-.54.45-1.29.67-2.23.67s-1.68-.22-2.22-.67c-.48-.4-.72-.91-.72-1.51s.24-1.12.72-1.52c.54-.45,1.28-.67,2.22-.67s1.69.22,2.23.67ZM80.93,5.02c-.23.2-.34.44-.34.74s.11.51.34.69c.26.21.62.31,1.08.31s.83-.1,1.09-.31c.23-.18.35-.41.35-.69,0-.3-.12-.55-.35-.74-.26-.2-.62-.3-1.09-.3s-.82.1-1.08.3Z"/>
      </g>
      <g>
        <path class="cls-1" d="M16.99,8.92c0,4.68-3.79,8.47-8.47,8.47S.05,13.6.05,8.92,3.84.45,8.52.45s8.47,3.79,8.47,8.47Z"/>
        <g>
          <polygon class="cls-2" points="5.07 11.62 2.97 11.62 5.87 5.57 7.97 5.57 5.07 11.62 5.07 11.62"/>
          <path class="cls-2" d="M13.75,6.24c-.12-.37-.43-.57-.65-.67-.14-.06-.25-.08-.25-.08-.12-.02-.24-.03-.36-.03-.49,0-.94.17-1.27.43-.16.13-.3.31-.4.49l.18.13s.11-.17.15-.2c.18-.2.37-.29.58-.27.43.05.22.49.22.49h0l-2.44,5.09h2.13l1.84-4.02c.23-.57.41-.9.26-1.35h0Z"/>
          <path class="cls-2" d="M7.24,12.74c-.29-.35-.44-.75-.53-1.07h0c-.11-.6.02-1.12.12-1.43v-.02c.05-.1.08-.18.1-.22l.19-.43h0l1.64-3.53c.13-.33.38-1.32-.66-1.89-1.48-.81-3.19.17-4.05,1.32-.6.8-.74,1.71-.74,1.95,0,.78.5,1.06.5,1.06.08.14-.09.21-.15.18-.01,0-.54-.28-.58-1.11,0-.21,0-.47.07-.76.25-1.15,1.01-2.12,2.05-2.74.06-.04.13-.07.19-.11h.03c.42-.24.88-.39,1.34-.46,1.21-.17,2.45.18,3.26,1.13.29.33.45.67.53.98.15.59.01,1.08-.11,1.37-.04.11-.08.21-.1.25l-1.24,2.58s-.24.5-.42.89c-.06.14-.21.56-.19,1.08.06.49.3,1.12.99,1.45,1.25.6,3.21.05,4.01-1.44.18-.34.43-.97.43-1.53,0-.8-.38-1.16-.39-1.17-.08-.14.09-.21.14-.18.01,0,.55.61.44,1.73-.13.95-.6,2.08-1.85,2.78-.07.04-.12.08-.19.11l-.03.02c-.42.23-.95.36-1.41.43-.16.02-.32.03-.49.03-1.05,0-2.22-.43-2.92-1.27"/>
        </g>
      </g>
    </g>
  </g>
</svg>